<mxfile host="app.diagrams.net" modified="2023-06-24T05:06:50.052Z" agent="Mozilla/5.0 (Windows NT 10.0; Win64; x64) AppleWebKit/537.36 (KHTML, like Gecko) Chrome/114.0.0.0 Safari/537.36" version="21.5.0" etag="RzLC79FJp22c2ickcTQg" type="github">
  <diagram name="Page-1" id="h4mfwY3Z28iseo5P9WQ9">
    <mxGraphModel>
      <root>
        <mxCell id="0" />
        <mxCell id="1" parent="0" />
      </root>
    </mxGraphModel>
  </diagram>
</mxfile>
